HIERARCHY
ROOT hips
{
  OFFSET 0 10.6860622 2.3727825e-15
  CHANNELS 6 Xposition Yposition Zposition Yrotation Xrotation Zrotation
  JOINT leftUpperLeg
  {
    OFFSET 0.6642549969 -0.9402397400000004 0
    CHANNELS 3 Yrotation Xrotation Zrotation
    JOINT leftLowerLeg
    {
      OFFSET 0 -3.997221335632195 0
      CHANNELS 3 Yrotation Xrotation Zrotation
      JOINT leftFoot
      {
        OFFSET -0.13777839790000004 -4.6145792000000005 -0.22186036399999998
        CHANNELS 3 Yrotation Xrotation Zrotation
        JOINT leftToes
        {
          OFFSET -0.03777410834999995 -0.9130806927000008 0.85230013
          CHANNELS 3 Yrotation Xrotation Zrotation
          End Site
          {
            OFFSET -0.03777410834999995 -0.9130806927000008 0.85230013
          }
        }
      }
    }
  }
  JOINT rightUpperLeg
  {
    OFFSET -0.6642778626 -0.9402397400000004 0
    CHANNELS 3 Yrotation Xrotation Zrotation
    JOINT rightLowerLeg
    {
      OFFSET 0 -3.997221452859387 0
      CHANNELS 3 Yrotation Xrotation Zrotation
      JOINT rightFoot
      {
        OFFSET 0.1377926176 -4.6145792000000005 -0.22185782299999995
        CHANNELS 3 Yrotation Xrotation Zrotation
        JOINT rightToes
        {
          OFFSET 0.037780746850000047 -0.9130806927000008 0.85230167
          CHANNELS 3 Yrotation Xrotation Zrotation
          End Site
          {
            OFFSET 0.037780746850000047 -0.9130806927000008 0.85230167
          }
        }
      }
    }
  }
  JOINT spine
  {
    OFFSET 0 0.13988381660000015 0
    CHANNELS 3 Yrotation Xrotation Zrotation
    JOINT chest
    {
      OFFSET 0 0.6191039003973773 0
      CHANNELS 3 Yrotation Xrotation Zrotation
      JOINT upperChest
      {
        OFFSET 0 0.9855186130586943 0
        CHANNELS 3 Yrotation Xrotation Zrotation
        JOINT leftShoulder
        {
          OFFSET 0.1807663869 1.5087829790000005 0
          CHANNELS 3 Yrotation Xrotation Zrotation
          JOINT leftUpperArm
          {
            OFFSET 0.5985063006419806 0 0
            CHANNELS 3 Yrotation Xrotation Zrotation
            JOINT leftLowerArm
            {
              OFFSET 2.2993332369501065 0 0
              CHANNELS 3 Yrotation Xrotation Zrotation
              JOINT leftHand
              {
                OFFSET 2.395047042602395 0 0
                CHANNELS 3 Yrotation Xrotation Zrotation
                JOINT leftIndexProximal
                {
                  OFFSET 0.5766295810000004 0.04556643899499946 0.17265095988184
                  CHANNELS 3 Yrotation Xrotation Zrotation
                  JOINT leftIndexIntermediate
                  {
                    OFFSET 0.2957229000000008 -0.019352197700001517 -0.007932640616999987
                    CHANNELS 3 Yrotation Xrotation Zrotation
                    JOINT leftIndexDistal
                    {
                      OFFSET 0.19008243099999922 -0.012484908149998475 -0.002786250786000012
                      CHANNELS 3 Yrotation Xrotation Zrotation
                      End Site
                      {
                        OFFSET 0.19008243099999922 -0.012484908149998475 -0.002786250786000012
                      }
                    }
                  }
                }
                JOINT leftMiddleProximal
                {
                  OFFSET 0.5834975091000001 0.0524350405149987 0.02204081888183999
                  CHANNELS 3 Yrotation Xrotation Zrotation
                  JOINT leftMiddleIntermediate
                  {
                    OFFSET 0.33880573540000003 -0.019871473270000717 -0.00000971183179999946
                    CHANNELS 3 Yrotation Xrotation Zrotation
                    JOINT leftMiddleDistal
                    {
                      OFFSET 0.20676022730000088 -0.012221336379999448 0.0001471936708000235
                      CHANNELS 3 Yrotation Xrotation Zrotation
                      End Site
                      {
                        OFFSET 0.20676022730000088 -0.012221336379999448 0.0001471936708000235
                      }
                    }
                  }
                }
                JOINT leftLittleProximal
                {
                  OFFSET 0.5344154683999995 -0.012880921405001189 -0.24414037221816004
                  CHANNELS 3 Yrotation Xrotation Zrotation
                  JOINT leftLittleIntermediate
                  {
                    OFFSET 0.21758961730000093 -0.011650919939999227 0.011893592810000034
                    CHANNELS 3 Yrotation Xrotation Zrotation
                    JOINT leftLittleDistal
                    {
                      OFFSET 0.1475273964999999 -0.008152365682999818 0.006001092492999946
                      CHANNELS 3 Yrotation Xrotation Zrotation
                      End Site
                      {
                        OFFSET 0.1475273964999999 -0.008152365682999818 0.006001092492999946
                      }
                    }
                  }
                }
                JOINT leftRingProximal
                {
                  OFFSET 0.5799399463000003 0.026911854694997794 -0.12150566991816003
                  CHANNELS 3 Yrotation Xrotation Zrotation
                  JOINT leftRingIntermediate
                  {
                    OFFSET 0.26167887460000006 -0.013480186499999602 0.010996293000000053
                    CHANNELS 3 Yrotation Xrotation Zrotation
                    JOINT leftRingDistal
                    {
                      OFFSET 0.17667108799999987 -0.008990287899999228 0.0055541023999999065
                      CHANNELS 3 Yrotation Xrotation Zrotation
                      End Site
                      {
                        OFFSET 0.17667108799999987 -0.008990287899999228 0.0055541023999999065
                      }
                    }
                  }
                }
                JOINT leftThumbProximal
                {
                  OFFSET 0.11018806699999972 -0.09448718900500053 0.17047963138184
                  CHANNELS 3 Yrotation Xrotation Zrotation
                  JOINT leftThumbIntermediate
                  {
                    OFFSET 0.31062601459999983 -0.08126270900000132 0.15443142000000007
                    CHANNELS 3 Yrotation Xrotation Zrotation
                    JOINT leftThumbDistal
                    {
                      OFFSET 0.21627175790000086 -0.08833193599999878 0.018771167799999988
                      CHANNELS 3 Yrotation Xrotation Zrotation
                      End Site
                      {
                        OFFSET 0.21627175790000086 -0.08833193599999878 0.018771167799999988
                      }
                    }
                  }
                }
              }
            }
          }
        }
        JOINT neck
        {
          OFFSET 0 1.5463305265074576 0
          CHANNELS 3 Yrotation Xrotation Zrotation
          JOINT head
          {
            OFFSET 0 0.8456443600000344 0
            CHANNELS 3 Yrotation Xrotation Zrotation
            JOINT leftEye
            {
              OFFSET 0.30408573140000006 0.5104519199999995 0.1276382305
              CHANNELS 3 Yrotation Xrotation Zrotation
              End Site
              {
                OFFSET 0.30408573140000006 0.5104519199999995 0.1276382305
              }
            }
            JOINT rightEye
            {
              OFFSET -0.30409491089999996 0.5104519199999995 0.1276379445
              CHANNELS 3 Yrotation Xrotation Zrotation
              End Site
              {
                OFFSET -0.30409491089999996 0.5104519199999995 0.1276379445
              }
            }
            JOINT jaw
            {
              OFFSET -3.155239131000001e-7 -0.11984121820000082 0.60178107
              CHANNELS 3 Yrotation Xrotation Zrotation
              End Site
              {
                OFFSET -3.155239131000001e-7 -0.11984121820000082 0.60178107
              }
            }
          }
        }
        JOINT rightShoulder
        {
          OFFSET -0.1807303465 1.5087829790000005 0
          CHANNELS 3 Yrotation Xrotation Zrotation
          JOINT rightUpperArm
          {
            OFFSET -0.5985063796536958 0 0
            CHANNELS 3 Yrotation Xrotation Zrotation
            JOINT rightLowerArm
            {
              OFFSET -2.2993322059002854 0 0
              CHANNELS 3 Yrotation Xrotation Zrotation
              JOINT rightHand
              {
                OFFSET -2.395045314457259 0 0
                CHANNELS 3 Yrotation Xrotation Zrotation
                JOINT rightIndexProximal
                {
                  OFFSET -0.5764487688300002 0.0441371204405987 0.17361932004999997
                  CHANNELS 3 Yrotation Xrotation Zrotation
                  JOINT rightIndexIntermediate
                  {
                    OFFSET -0.29573011380000047 -0.01934826376999843 -0.007698921482999974
                    CHANNELS 3 Yrotation Xrotation Zrotation
                    JOINT rightIndexDistal
                    {
                      OFFSET -0.19008373999999884 -0.012503266380000655 -0.0026365778999999897
                      CHANNELS 3 Yrotation Xrotation Zrotation
                      End Site
                      {
                        OFFSET -0.19008373999999884 -0.012503266380000655 -0.0026365778999999897
                      }
                    }
                  }
                }
                JOINT rightMiddleProximal
                {
                  OFFSET -0.5834852037300005 0.05211639405060153 0.02307162440000001
                  CHANNELS 3 Yrotation Xrotation Zrotation
                  JOINT rightMiddleIntermediate
                  {
                    OFFSET -0.33880114510000003 -0.019952774050000954 0.0002455003561999819
                    CHANNELS 3 Yrotation Xrotation Zrotation
                    JOINT rightMiddleDistal
                    {
                      OFFSET -0.20675694929999955 -0.012273788999999091 0.00030209124000002766
                      CHANNELS 3 Yrotation Xrotation Zrotation
                      End Site
                      {
                        OFFSET -0.20675694929999955 -0.012273788999999091 0.00030209124000002766
                      }
                    }
                  }
                }
                JOINT rightLittleProximal
                {
                  OFFSET -0.5346811737299992 -0.011214256288399227 -0.24363941305000003
                  CHANNELS 3 Yrotation Xrotation Zrotation
                  JOINT rightLittleIntermediate
                  {
                    OFFSET -0.21757715980000092 -0.011771559690000988 0.01201554387
                    CHANNELS 3 Yrotation Xrotation Zrotation
                    JOINT rightLittleDistal
                    {
                      OFFSET -0.1475201849000004 -0.00822055339600003 0.006082065407000015
                      CHANNELS 3 Yrotation Xrotation Zrotation
                      End Site
                      {
                        OFFSET -0.1475201849000004 -0.00822055339600003 0.006082065407000015
                      }
                    }
                  }
                }
                JOINT rightRingProximal
                {
                  OFFSET -0.5800810755299999 0.027657985680600072 -0.12066365025000003
                  CHANNELS 3 Yrotation Xrotation Zrotation
                  JOINT rightRingIntermediate
                  {
                    OFFSET -0.26166445029999974 -0.013623118409999302 0.011164098990000045
                    CHANNELS 3 Yrotation Xrotation Zrotation
                    JOINT rightRingDistal
                    {
                      OFFSET -0.17666387530000027 -0.009072900100000503 0.005668185599999959
                      CHANNELS 3 Yrotation Xrotation Zrotation
                      End Site
                      {
                        OFFSET -0.17666387530000027 -0.009072900100000503 0.005668185599999959
                      }
                    }
                  }
                }
                JOINT rightThumbProximal
                {
                  OFFSET -0.10997596379000074 -0.09577489355940072 0.16989765924999997
                  CHANNELS 3 Yrotation Xrotation Zrotation
                  JOINT rightThumbIntermediate
                  {
                    OFFSET -0.31036620999999986 -0.08229339117999834 0.15440884469999996
                    CHANNELS 3 Yrotation Xrotation Zrotation
                    JOINT rightThumbDistal
                    {
                      OFFSET -0.21631306399999906 -0.08825326400000111 0.018656797720000014
                      CHANNELS 3 Yrotation Xrotation Zrotation
                      End Site
                      {
                        OFFSET -0.21631306399999906 -0.08825326400000111 0.018656797720000014
                      }
                    }
                  }
                }
              }
            }
          }
        }
      }
    }
  }
}
MOTION
Frames: 7
Frame Time: 0.03333333333333333
-10.198988169273663 -10.07322438200052 0 180 -85.99556960093058 180 -2.14228192861728 -40.59903921808999 10.237381100314101 177.20584835628264 50.631490777332196 -179.30820540236456 12.789719066061455 3.554447853787471 11.705661351151697 0 0 0 5.862193759609612 -32.1453777228531 -12.743305643699633 -156.0766012184987 72.22418577932481 -146.71333240549686 2.842307254174168 14.885529401584488 15.868959814605859 0 0 0 -0.18864719172106587 1.8880377671877246 -1.4116803951057644 -0.6391830359571632 10.077214124166593 -0.7320280414737911 0 0 0 2.5530595642254488 4.574250347643946 18.622306686547404 0.8163916190010767 -4.051539534125973 38.047797920481734 -109.30517620191682 -4.173375557533808 -9.859128514050562 28.59078288220417 -42.287542340982895 -49.639378119885826 0 0 0 0 0 0 0 0 0 0 0 0 0 0 0 0 0 0 0 0 0 0 0 0 0 0 0 0 0 0 0 0 0 0 0 0 0 0 0 0 0 0 0 0 0 0 30.52453837377863 0 -0.045909649488635816 29.358577510802064 4.213307585657237 0 0 0 0 0 0 0 0 0 -0.8581377690555826 4.538325708357059 -20.316499950598715 1.2305209599477431 -1.5349299799260936 -34.373426229766544 94.53617808217666 -0.9495257751360824 13.3446246730896 -17.599219309134554 -44.21869296847669 47.70851633023806 0 0 0 0 0 0 0 0 0 0 0 0 0 0 0 0 0 0 0 0 0 0 0 0 0 0 0 0 0 0 0 0 0 0 0 0 0 0 0 0 0 0 0 0 0
-10.198988169273663 -10.07322438200052 0 180 -85.99556960093058 180 -2.067502016390687 -40.64375324766641 10.416554296099347 177.20584835628264 50.631490777332196 -179.30820540236456 12.680057358029014 3.524871994381461 11.934522964131313 0 0 0 5.592053100327962 -32.134165522067654 -12.9167439317735 -156.0766012184987 72.22418577932481 -146.71333240549686 2.994516138449975 14.830471067036642 15.535786743442683 0 0 0 -0.1813632272268668 1.6364250228862594 -1.3654246373367098 -0.6388796438523727 10.444007431780873 -0.7356951490560943 0 0 0 2.6303972987897812 4.4108525138721495 18.797013405100973 0.7549952502758963 -3.9514676576752037 37.84050439266365 -108.77475942512544 -4.0746020021513365 -9.997358157736766 27.93130434265247 -42.376253208732194 -49.42622398225236 0 0 0 0 0 0 0 0 0 0 0 0 0 0 0 0 0 0 0 0 0 0 0 0 0 0 0 0 0 0 0 0 0 0 0 0 0 0 0 0 0 0 0 0 0 0 30.52453837377863 0 -0.060614837080130234 28.953419209968597 4.055669564049405 0 0 0 0 0 0 0 0 0 -0.9938598607741609 4.37674604491714 -20.433025219204417 1.2233226361081568 -1.528031692774743 -34.2961692635474 94.53617808217666 -0.9495257751360824 13.3446246730896 -17.315132906870492 -44.22013205800541 47.54442612873667 0 0 0 0 0 0 0 0 0 0 0 0 0 0 0 0 0 0 0 0 0 0 0 0 0 0 0 0 0 0 0 0 0 0 0 0 0 0 0 0 0 0 0 0 0
-10.198988169273663 -10.07322438200052 0 180 -85.99556960093058 180 -1.9928567062519595 -40.6886413749302 10.595769937190909 177.20584835628264 50.631490777332196 -179.30820540236456 12.570282820226225 3.495733311508967 12.163433895576063 0 0 0 5.321905848395386 -32.123640213671955 -13.090221875804291 -156.0766012184987 72.22418577932481 -146.71333240549686 3.1470153564148546 14.776270859894922 15.202545041195043 0 0 0 -0.17428329719298785 1.384806478435464 -1.3192062579684183 -0.6385997317784649 10.810801221502551 -0.7393647494392127 0 0 0 2.7072182062767443 4.2472205091253254 18.971462042344346 0.6932437468722791 -3.851617928990143 37.6331233668601 -108.24464731074761 -3.9745563982224907 -10.134647993473962 27.270455789243037 -42.463135970131155 -49.21140515528295 0 0 0 0 0 0 0 0 0 0 0 0 0 0 0 0 0 0 0 0 0 0 0 0 0 0 0 0 0 0 0 0 0 0 0 0 0 0 0 0 0 0 0 0 0 0 30.52453837377863 0 -0.07399403433775786 28.54822833517633 3.8987597929403464 0 0 0 0 0 0 0 0 0 -1.1292234836747557 4.214892629810544 -20.549142804459844 1.216133644616322 -1.5211237126795762 -34.218914866935066 94.53617808217666 -0.9495257751360824 13.3446246730896 -17.031034602397813 -44.220985044892046 47.3803268081578 0 0 0 0 0 0 0 0 0 0 0 0 0 0 0 0 0 0 0 0 0 0 0 0 0 0 0 0 0 0 0 0 0 0 0 0 0 0 0 0 0 0 0 0 0
-10.198988169273663 -10.07322438200052 0 180 -85.99556960093058 180 -1.8439433709572048 -40.7789685031625 10.954400940255296 177.20584835628264 50.631490777332196 -179.30820540236456 12.350347334523574 3.438759371188189 12.621506527745643 0 0 0 4.781312987786982 -32.10464933759316 -13.437453022571859 -156.0766012184987 72.22418577932481 -146.71333240549686 3.4530330272878804 14.670387357942284 14.535497138514469 0 0 0 -0.16073200478383567 0.8814431996814965 -1.2268528546053787 -0.6381114326610858 11.544716330866681 -0.7467155122789348 0 0 0 2.8593455025483525 3.91919576066679 19.31966552989206 0.5686526029084159 -3.652553019048031 37.218030660824745 -107.18427325932343 -3.770480695602632 -10.406639231628398 25.943407769818375 -42.63155471716852 -48.776422512660545 0 0 0 0 0 0 0 0 0 0 0 0 0 0 0 0 0 0 0 0 0 0 0 0 0 0 0 0 0 0 0 0 0 0 0 0 0 0 0 0 0 0 0 0 0 0 30.52453837377863 0 -0.09685271515404255 27.73723976834074 3.5868361613043676 0 0 0 0 0 0 0 0 0 -1.3989329921759972 3.890308291893183 -20.78020213526939 1.201783269142072 -1.5072791006632356 -34.0643989583626 94.53617808217666 -0.9495257751360824 13.3446246730896 -16.462752050635025 -44.220942156988166 47.05206959340699 0 0 0 0 0 0 0 0 0 0 0 0 0 0 0 0 0 0 0 0 0 0 0 0 0 0 0 0 0 0 0 0 0 0 0 0 0 0 0 0 0 0 0 0 0
-10.198988169273663 -10.07322438200052 0 180 -85.99556960093058 180 -1.769679770033476 -40.8244037961931 11.133810922218514 177.20584835628264 50.631490777332196 -179.30820540236456 12.240192554703416 3.4109255178800466 12.850658141222603 0 0 0 4.510895960972314 -32.09619543469118 -13.611196575386721 -156.0766012184987 72.22418577932481 -146.71333240549686 3.6065288368364787 14.618718633116954 14.20173033159616 0 0 0 -0.1542605335418818 0.6297074000387418 -1.180716871425111 -0.6379029795228118 11.91181020309625 -0.7503969733915878 0 0 0 2.934649485671531 3.7548121916171233 19.49341694397069 0.5058158576897573 -3.5533430805685526 37.01031912937583 -106.65410564300308 -3.666482564430217 -10.541289392900328 25.277361139857156 -42.71303012490136 -48.55634977616829 0 0 0 0 0 0 0 0 0 0 0 0 0 0 0 0 0 0 0 0 0 0 0 0 0 0 0 0 0 0 0 0 0 0 0 0 0 0 0 0 0 0 0 0 0 0 30.52453837377863 0 -0.10635962506263907 27.331498580280126 3.431794566414207 0 0 0 0 0 0 0 0 0 -1.533276924270024 3.7275858127150534 -20.895139777220404 1.1946215636611934 -1.50034204168976 -33.98713998985934 94.53617808217666 -0.9495257751360824 13.3446246730896 -16.17859140762158 -44.22005104872019 46.88794094263934 0 0 0 0 0 0 0 0 0 0 0 0 0 0 0 0 0 0 0 0 0 0 0 0 0 0 0 0 0 0 0 0 0 0 0 0 0 0 0 0 0 0 0 0 0
-10.198988169273663 -10.07322438200052 0 180 -85.99556960093058 180 -1.6955534351163837 -40.8700102381037 11.313266874894728 177.20584835628264 50.631490777332196 -179.30820540236456 12.12993004727841 3.3835314348726206 13.079855676672976 0 0 0 4.240473847075084 -32.08843562594754 -13.78497054555349 -156.0766012184987 72.22418577932481 -146.71333240549686 3.7602972178283864 14.567917727033175 13.867899630841931 0 0 0 -0.14799202606753162 0.37796649358326384 -1.1346112677534963 -0.6377183863560345 12.278903728809807 -0.7540821274815279 0 0 0 3.0094398668582594 3.5902012216810664 19.66692083390443 0.4426258649577696 -3.4543612754173005 36.80252107599488 -106.12424557622627 -3.5612458951360932 -10.674953615403224 24.61002469019431 -42.79261608938749 -48.33471357328504 0 0 0 0 0 0 0 0 0 0 0 0 0 0 0 0 0 0 0 0 0 0 0 0 0 0 0 0 0 0 0 0 0 0 0 0 0 0 0 0 0 0 0 0 0 0 30.52453837377863 0 -0.1146006488504775 26.925733608589244 3.2773900354210883 0 0 0 0 0 0 0 0 0 -1.6672692021136983 3.5645946781963747 -21.00967401165875 1.1874691896533756 -1.4933953964977071 -33.909880175064814 94.53617808217666 -0.9495257751360824 13.3446246730896 -15.894441358621924 -44.2185786052546 46.72382076706835 0 0 0 0 0 0 0 0 0 0 0 0 0 0 0 0 0 0 0 0 0 0 0 0 0 0 0 0 0 0 0 0 0 0 0 0 0 0 0 0 0 0 0 0 0
-10.198988169273663 -10.07322438200052 0 180 -85.99556960093058 180 -1.5477015782666201 -40.96177428159113 11.672364152958139 177.20584835628264 50.631490777332196 -179.30820540236456 11.909059773368995 3.330057702428675 13.538450625591402 0 0 0 3.6994374884794508 -32.07499759896437 -14.132705426212398 -156.0766012184987 72.22418577932481 -146.71333240549686 4.068741463851356 14.468881553441316 13.199808207553755 0 0 0 -0.13606057425877727 -0.12559996899366513 -1.042470352188658 -0.6374206732847769 13.013302677343956 -0.7614671994933496 0 0 0 3.1575014639509438 3.2602619939389053 20.013233979905642 0.3151729181976058 -3.2570637091547474 36.38661644591647 -105.0647856644622 -3.3469560941596055 -10.939458015862987 23.270725168616192 -42.94616123218045 -47.88658740916832 0 0 0 0 0 0 0 0 0 0 0 0 0 0 0 0 0 0 0 0 0 0 0 0 0 0 0 0 0 0 0 0 0 0 0 0 0 0 0 0 0 0 0 0 0 0 30.52453837377863 0 -0.12734560086288513 26.11383198454717 2.97028292236117 0 0 0 0 0 0 0 0 0 -1.934236779477047 3.2377760862850784 -21.23756446244063 1.1731939275361507 -1.479473133898561 -33.75537536655124 94.53617808217666 -0.9495257751360824 13.3446246730896 -15.326118113120945 -44.213866080634105 46.39558228998311 0 0 0 0 0 0 0 0 0 0 0 0 0 0 0 0 0 0 0 0 0 0 0 0 0 0 0 0 0 0 0 0 0 0 0 0 0 0 0 0 0 0 0 0 0
